<?xml version="1.0" standalone="no"?>
<!DOCTYPE svg PUBLIC "-//W3C//DTD SVG 1.1//EN" "http://www.w3.org/Graphics/SVG/1.1/DTD/svg11.dtd" >
<svg xmlns="http://www.w3.org/2000/svg" xmlns:xlink="http://www.w3.org/1999/xlink" version="1.1">
<metadata></metadata>
<defs>
<font id="midnightconstellationsmedium" horiz-adv-x="698" >
<font-face units-per-em="2048" ascent="1638" descent="-410" />
<missing-glyph horiz-adv-x="614" />
<glyph horiz-adv-x="0" />
<glyph unicode="&#xd;" horiz-adv-x="681" />
<glyph unicode=" "  horiz-adv-x="614" />
<glyph unicode="&#x09;" horiz-adv-x="614" />
<glyph unicode="&#xa0;" horiz-adv-x="614" />
<glyph unicode="!" horiz-adv-x="573" d="M150 135l112 41l31 117l74 -94l120 6l-67 -101l43 -110l-115 33l-94 -76l-4 121zM293 381q0 133 4 424q0 43 2 63q4 356 2 541q0 18 11.5 30.5t28.5 12.5t29.5 -11.5t14.5 -29.5q2 -186 -2 -543q-2 -23 -2 -65q-4 -289 -4 -422q0 -18 -12.5 -30.5t-30 -12.5t-29.5 12 t-12 31z" />
<glyph unicode="&#x22;" horiz-adv-x="641" d="M139 1419q0 16 11.5 29.5t29 13.5t30.5 -12.5t13 -28.5q0 -49 4 -147q0 -45 2 -70q4 -145 4 -237q0 -18 -12 -30.5t-29.5 -12.5t-29.5 12t-12 31q0 92 -5 235q-2 23 -2 70q-4 98 -4 147zM457 1188q2 31 6 88q6 94 8 139q0 18 13.5 29.5t30.5 11.5t28.5 -13.5t11.5 -29.5 q-2 -47 -8 -143q-4 -57 -6 -86q-6 -133 2 -219q2 -16 -8.5 -29.5t-28 -15.5t-30.5 8t-15 28q-10 92 -4 232z" />
<glyph unicode="#" horiz-adv-x="1150" d="M85 490.5q-1 17.5 11.5 31t28.5 13.5q63 2 131 8q25 104 61 229q20 72 48 152h-15q-72 -4 -108 -4q-16 0 -28.5 13t-11.5 30.5t13.5 29t30.5 11.5q33 0 100 2q20 2 47 4q4 14 10 28q6 20 59.5 173t63.5 186q6 16 21.5 24.5t32 2t24.5 -22t2 -31.5q-12 -33 -63 -183.5 t-60 -170.5h4q78 4 129 6q113 6 191 4q29 84 43 148q23 96 27 184q2 18 14 29.5t29.5 10.5t29 -13.5t11.5 -30.5q-4 -96 -29 -199q-14 -59 -37 -133q90 -8 135 -33q14 -8 19.5 -24.5t-3 -31.5t-25.5 -20.5t-32 2.5q-33 18 -121 25q-2 0 -2 -2l-10 -31q-43 -131 -63 -207 q-14 -55 -25 -114q141 2 262 -19q18 -4 27.5 -18t6.5 -31.5t-17.5 -27t-30.5 -7.5q-119 23 -264 19q-4 -29 -11 -66l-2 -10q-31 -170 -51 -258q-4 -18 -19.5 -26.5t-31.5 -4.5t-25.5 18.5t-5.5 32.5q20 86 49 252q2 2 2 9q4 29 9 49q-41 -2 -88 -6q-51 -6 -150 -17 q-63 -6 -104 -10q-35 -172 -35 -297q0 -18 -12.5 -30.5t-30 -12.5t-29.5 12.5t-12 30.5q0 125 33 289q-55 -4 -109 -6q-18 0 -30.5 11t-13.5 28.5zM344 551q31 4 74 8q100 10 151 14q59 6 113 9q14 76 31 139q18 78 63 213q2 4 4 10q-68 0 -159 -6q-51 -2 -127 -6 q-4 0 -39 -2q-31 -98 -58 -180q-31 -106 -53 -199z" />
<glyph unicode="$" horiz-adv-x="1161" d="M-4 442l90 15l41 84l41 -82l92 -13l-65 -65l16 -90l-35 18q23 -88 96 -149q94 -82 242 -101q2 145 4 529q2 29 2 49v82h-4q-84 27 -129 43q-70 25 -119 51q-125 70 -153 178q-45 180 78 312q104 113 284 139q25 2 47 4v51q-25 -10 -47 -22l19 90l-64 67l92 10l43 80 l39 -84l90 -16l-67 -61l10 -93l-31 19v-41q106 -8 191 -53q117 -63 164 -181l41 29l-3 -92l76 -53l-88 -27l-28 -88l-54 76h-92l55 71l-28 89q16 -4 30 -11q-37 70 -114 111q-66 37 -150 45q0 -174 -4 -582q104 -33 168 -59q100 -43 160 -96q156 -139 94 -381 q-37 -147 -197 -221q-102 -49 -231 -52v-67l43 30l-2 -92l76 -53l-88 -27l-29 -88l-53 76h-92l55 72l-29 88l35 -12v77q-178 20 -297 119q-102 88 -127 217l-41 -22l14 90zM197 1012q18 -74 112 -125q66 -35 211 -82q4 389 4 557q-16 -2 -35 -4q-152 -23 -237 -113 q-90 -96 -55 -233zM598 55q111 2 197 43q123 57 149 166q49 193 -67 297q-51 45 -138 82q-53 23 -135 49v-57q0 -18 -2 -49q-2 -386 -4 -531z" />
<glyph unicode="%" horiz-adv-x="1775" d="M160 911l116 154l-61 184l182 -63l156 114l-2 -192l158 -113l-187 -57l-57 -184l-111 159zM497 -5.5q-5 17.5 3 32.5q113 219 239 452q43 82 105 197q2 0 15 24.5t29.5 54t34 61.5t23.5 46q16 27 29 51q143 262 250 473q8 16 24.5 21.5t31.5 -2.5t20 -24.5t-1 -30.5 q-109 -213 -251 -476q-12 -25 -29 -53q-8 -14 -24.5 -46t-33 -60.5t-30.5 -55.5l-14 -24q-61 -113 -105 -195q-127 -233 -240 -452q-6 -14 -23.5 -19.5t-32.5 1.5t-20 24.5zM1143 209l117 153l-62 185l182 -64l156 115l-2 -192l158 -113l-187 -57l-57 -185l-111 160z" />
<glyph unicode="&#x26;" horiz-adv-x="1490" d="M119 319q-2 141 127 273q49 51 125 106q41 33 104 74q-137 180 -176 328q-25 92 23.5 182t144.5 145q94 53 192 48q113 -8 189 -97q156 -178 65 -344q-37 -66 -114 -133q-57 -49 -158 -119q-18 -10 -43 -26q0 -2 -2 -2q49 -61 111 -127q100 -109 243 -246q20 31 41 63 q41 72 64 142h-39l55 73l-29 86l88 -28l74 53l-2 -92l76 -53l-88 -27l-29 -88l-28 41q-39 -113 -121 -229q39 -37 155 -146l37 88l68 -119l135 -10l-92 -100l31 -133l-125 57l-115 -70l14 136l-102 88l78 16q-96 90 -135 127q-47 -57 -97 -100q-135 -121 -278 -152 q-170 -37 -326 57q-137 86 -141 258zM203 322q2 -127 102 -189q125 -78 262 -47q123 27 242 131q47 43 90 96q-152 143 -254 256q-66 72 -119 138q-152 -104 -221 -172q-104 -109 -102 -213zM381 1120q35 -131 164 -301q6 4 8 6q23 16 41 27q96 66 149 113q68 57 97 110 q31 55 20 109q-10 66 -76 139q-53 61 -131 68q-72 6 -145 -35q-72 -41 -109 -106.5t-18 -129.5z" />
<glyph unicode="'" horiz-adv-x="378" d="M197 1434q0 18 12 30.5t28.5 12.5t29 -12.5t12.5 -30.5q0 -305 14 -469q2 -18 -9.5 -31.5t-28.5 -14.5t-30.5 10t-15.5 27q-12 168 -12 478z" />
<glyph unicode="(" horiz-adv-x="731" d="M188 506q0 242 54.5 467t150.5 389h-37l56 72l-29 88l88 -29l74 53l-2 -92l75 -53l-88 -27l-28 -88q-14 23 -31 43q-92 -152 -145.5 -370t-53.5 -453q0 -248 57.5 -454t164.5 -337l26 47l35 -84l90 -18l-70 -61l11 -93l-78 50l-84 -39l20 90l-61 67q16 2 33 4 q-96 125 -156 310q-72 233 -72 518z" />
<glyph unicode=")" horiz-adv-x="559" d="M6 -354l90 22l31 88l29 -45q100 150 161.5 365t71.5 450q10 248 -39 456t-149 343l-29 -45l-33 86l-90 23l74 57l-6 90l76 -49l86 33l-25 -88l59 -70q-18 -2 -34 -2q92 -129 143 -316q63 -236 51 -522q-10 -242 -73.5 -464t-166.5 -382h35l-57 -71l27 -88l-86 32l-76 -53 l4 92z" />
<glyph unicode="*" horiz-adv-x="796" d="M88 1260l215 36l90 197l103 -193l215 -24l-152 -156l43 -213l-194 94l-191 -104l31 215z" />
<glyph unicode="+" horiz-adv-x="1245" d="M59 555l84 37l19 90l61 -70l90 11l-18 -35q117 0 258 -2v4v12q6 188 4 277l-47 -23l20 90l-61 68l92 8l45 80l35 -84l90 -19l-69 -61l10 -92q-14 10 -31 18q2 -84 -4 -264v-12v-2h268h37l-16 49l88 -29l73 53l-2 -92l76 -53l-88 -27l-29 -88l-53 76h-92l23 27h-17h-157.5 h-112.5q-2 -92 0 -162q0 -74 2 -137l37 24l-6 -92l71 -57l-90 -23l-31 -86l-49 78l-92 4l60 70l-25 90l41 -18q-2 70 -2 147q-2 70 0 162q-145 2 -266 4l20 -47l-90 22l-68 -63l-8 92z" />
<glyph unicode="," horiz-adv-x="503" d="M158 143l90 27l28 86l52 -76h92l-58 -74l29 -88l-37 15q4 -51 -8 -111q-27 -106 -94 -182q-12 -12 -29.5 -13t-31 10t-14.5 28.5t11 29.5q53 61 76 148q10 45 6 84l-41 -29l4 90z" />
<glyph unicode="-" d="M78 576.5q0 17.5 13.5 29.5t29.5 10q57 0 184 -4q96 -4 146 -4q66 -2 120 -2q16 0 28.5 -12t12.5 -29.5t-12 -30t-29 -12.5q-55 0 -120 2q-53 2 -150 4q-125 4 -182 4q-16 2 -28.5 14.5t-12.5 30z" />
<glyph unicode="." horiz-adv-x="499" d="M154 133l90 27l28 86l52 -76h92l-58 -74l29 -88l-86 33l-76 -53l4 90z" />
<glyph unicode="/" horiz-adv-x="651" d="M43 47q4 14 8 29q68 225 170 538q8 25 24.5 77t35 108.5t35 109t28.5 86.5l12 37q78 242 127 400q4 16 20.5 24t33 3t24.5 -20.5t2 -31.5q-49 -158 -127 -399q0 -2 -12 -38t-28.5 -88.5t-35 -108.5t-35 -107.5t-24.5 -77.5q-102 -313 -170 -537l-8 -28 q-4 -16 -19.5 -24.5t-32 -3.5t-24.5 20.5t-4 31.5z" />
<glyph unicode="0" horiz-adv-x="1245" d="M57 795q20 264 142 434q139 199 368 198q88 0 142 -12q68 -16 125 -57q61 -33 108 -105l19 56l71 -107h129l-80 -102l39 -123l-88 33q49 -242 4 -498q-53 -299 -207 -442q-188 -174 -460 -52q-166 74 -252 310q-78 215 -60 467zM141 788q-18 -233 54 -432 q74 -201 208 -262q221 -98 369 37q133 125 182 395q41 240 -2 461l-57 -41l4 129l-104 76l94 27q-39 71 -86 100q-8 4 -12 8h-3l-8 4q-12 4 -20 15q-33 20 -70 28q-45 10 -123 10q-186 0 -301 -163q-106 -152 -125 -392z" />
<glyph unicode="1" horiz-adv-x="960" d="M422 1364l158 6l84 135l57 -147l153 -39l-122 -100l10 -158l-96 63q-4 -51 -7 -108q-4 -139 5 -336q4 -59 10 -176q12 -223 14 -322l37 27l-4 -90l74 -56l-88 -24l-31 -88l-49 78h-92l57 73l-27 86l39 -14q-2 98 -14 326q-6 117 -10 178q-8 199 -5 340q2 57 7 110 l-101 -41l43 154z" />
<glyph unicode="2" horiz-adv-x="1249" d="M-49 92l112 41l31 117l45 -57q117 184 310 331q72 55 180 125q6 4 41 26.5t43 26.5q45 31 73 52q129 90 158 170q37 102 -39 264q-47 98 -168 137q-115 37 -243 4q-133 -35 -209 -125q-66 -80 -68 -184l37 18l-14 -84l61 -59l-86 -12l-37 -78l-39 78l-84 12l62 59l-15 84 q14 -8 31 -16q4 133 88 235q92 111 252 154q152 39 291 -6q154 -49 217 -182q92 -193 43 -328q-39 -106 -188 -211q-31 -20 -78 -51q-8 -4 -43 -26.5t-41 -26.5q-106 -68 -174 -121q-176 -137 -283 -303l72 4l-43 -66q25 2 57.5 5t54.5 3l23 2q137 10 235 13q154 6 261 0 l-25 65l117 -37l94 76l2 -121l100 -67l-114 -39l-33 -115l-72 96l-121 -6l45 66q-102 4 -249 -2q-98 -2 -234 -13h-11t-24.5 -2t-34 -3t-39 -2t-36.5 -3l22 -61l-114 33l-95 -76l-4 121z" />
<glyph unicode="3" horiz-adv-x="1157" d="M-18 375l114 41l31 116l74 -96l121 8l-68 -100l43 -113l-82 25q31 -90 92 -143q66 -57 162 -66q117 -12 274 43q111 39 181.5 147.5t62.5 223.5q-8 117 -106 184q-88 59 -234 70l23 -43l-109 16l-74 -80l-20 109l-98 45l96 51l12 109l80 -76l109 20l-29 -57 q166 31 235 121q76 100 19 227q-29 63 -82 111.5t-121 70.5q-162 57 -330 -43q-53 -31 -86 -84l68 5l-59 -91l38 -100l-104 31l-84 -70l-2 109l-92 59l102 37l27 104l33 -43q45 74 116 117q203 119 400 49q84 -29 150.5 -89t101.5 -138q37 -80 29.5 -163t-58.5 -148 q-49 -68 -137 -109q72 -20 127 -57q131 -90 143 -248q10 -143 -76 -275.5t-223 -179.5q-340 -121 -520 37q-72 63 -113 166l-4 12l-47 -39l-4 121z" />
<glyph unicode="4" horiz-adv-x="1249" d="M8 487l113 41l31 117l47 -61q8 14 18 26q119 174 219 320l4 8q154 225 234 344l-74 47l113 41l30 117l74 -96l121 8l-68 -101l43 -112l-98 28q4 -104 8 -327q2 -129 4 -195q2 -82 4 -149q55 6 95 10l-29 31l92 10l45 82l39 -84l92 -19l-69 -61l12 -94l-82 47l-84 -39 q4 23 10 45q-47 -6 -116 -12q4 -137 14 -256l80 37l-27 -117l84 -88l-121 -12l-57 -107l-49 111l-119 22l90 80l-16 119l49 -27q-8 106 -12 228q-92 -10 -189 -19q-160 -16 -266 -24l25 -62l-115 33l-94 -76l-4 121zM279 551q33 2 67 4l-45 -63q104 8 254 22q98 8 193 18 q-2 74 -5 158q-2 66 -4 195q-4 188 -6 280l-28 -22v33q-76 -111 -195 -285l-4 -8q-106 -154 -219 -320z" />
<glyph unicode="5" horiz-adv-x="1155" d="M35 190l90 80l-14 119l104 -61l109 49l-27 -117l82 -88l-94 -8q41 -49 98 -80q121 -63 262 -31q145 31 234 142q96 123 82 301q-6 90 -71 164.5t-163 109.5q-113 37 -242 12q-102 -18 -206 -80l43 -36l-93 -19l-34 -88l-48 82l-94 8l64 70l-21 90l45 -21q2 4 2 9 q18 129 37 237q6 39 13 76q35 199 51 254q8 23 32 31q4 0 13 2h26q31 0 86 -2q80 -4 248 -15q14 -2 31 -2q100 -6 135 -8q-12 23 -27 45l103 -14l70 76l16 -103l94 -41l-90 -49l-12 -100l-74 69l-100 -20l24 51q-2 0 -4 2l-141 8q-16 2 -31 2q-166 10 -246 15q-53 2 -80 2 q-16 -63 -41 -217q-6 -35 -14 -76q-16 -100 -33 -219l31 18l-2 -31q262 141 496 62q123 -43 202.5 -137.5t87.5 -210.5q18 -211 -100 -359q-106 -135 -280 -172q-172 -39 -320 39q-68 35 -119 92l-26 -47l-47 113z" />
<glyph unicode="6" horiz-adv-x="1255" d="M100 422q-61 250 19 516q80 264 252 401q195 156 415 66q115 -47 172 -123l17 64l74 -95l120 6l-67 -100l43 -110l-115 32l-94 -75l-4 120l-101 64l72 26q-2 6 -6 13q-45 61 -141 100q-176 72 -334 -53q-152 -121 -223 -359q-49 -170 -37 -340q27 82 82 148 q63 72 154 110.5t193.5 41t194 -34.5t154.5 -107q150 -164 90 -432q-29 -137 -105.5 -224t-191.5 -120q-88 -25 -180 -14.5t-154 49.5q-229 145 -299 430zM233 299q74 -150 211 -238q43 -27 113 -34q80 -10 154 12q84 25 143 86q68 74 94 194q49 225 -69 357 q-106 119 -285 115q-180 -2 -287 -125q-121 -138 -74 -367z" />
<glyph unicode="7" horiz-adv-x="1267" d="M-18 1354l96 35l26 100l64 -82l104 6l-30 -45q313 31 553 31q31 0 59 -2l-31 88l133 -43l111 84v-140l115 -79l-131 -43l-41 -134l-60 82q-123 -156 -254 -419q-150 -301 -233 -592l82 4l-68 -99l43 -112l-117 33l-92 -76l-4 121l-100 65l112 41l31 117l37 -49 q82 266 215 543.5t264 451.5l-78 -2l54 74q-23 2 -47 2q-244 0 -564 -31l19 -53l-98 29l-80 -66l-4 104z" />
<glyph unicode="8" horiz-adv-x="1124" d="M76 422q31 229 170 319q35 25 76 39q-119 59 -160 162q-55 143 51 297q100 147 274 188q199 45 377 -88q53 -41 86 -98q45 -82 37 -184q-18 -195 -151 -266q-29 -16 -64 -27q78 -33 135 -84q143 -129 131 -311.5t-168 -290.5q-170 -121 -434 -86q-156 20 -260 123 q-127 123 -100 307zM158 410q-18 -141 75 -236q84 -82 216 -98q229 -31 372 69q123 88 132.5 229.5t-103.5 241.5q-117 105 -322 117q-80 -6 -127 -16q-66 -14 -108 -45q-109 -70 -135 -262zM242 973q43 -115 231 -156q2 2 6 2q25 0 47 -2q14 0 41 2q88 6 127 12 q63 10 103 33q92 49 106 201q6 76 -26 135q-25 43 -64 72q-145 111 -305 74q-143 -33 -227 -154q-80 -117 -39 -219z" />
<glyph unicode="9" horiz-adv-x="1144" d="M-29 125l66 100l-45 113l117 -33l92 76l6 -119l102 -65l-73 -27q4 -6 8 -10q45 -61 141 -101q176 -70 332 56q152 123 221 362q49 170 35 338q-27 -82 -82 -145q-61 -74 -152.5 -114t-194 -43t-193.5 33t-154 105q-152 164 -97 432q29 137 105 224.5t190 122.5 q88 25 180.5 16.5t153.5 -47.5q231 -143 303 -428q63 -250 -14 -516q-76 -266 -248 -404q-195 -158 -416 -69q-115 45 -172 120l-16 -63l-76 94zM182 1065q-47 -225 76 -356q106 -117 285 -111q178 4 284 127q121 140 72 369q-76 147 -215 233q-43 27 -113 35 q-78 8 -151 -12q-86 -27 -144 -88q-68 -76 -94 -197z" />
<glyph unicode=":" horiz-adv-x="550" d="M201 977l90 27l28 86l52 -76h92l-57 -74l28 -88l-86 33l-76 -54l4 91zM205 139l90 27l29 86l51 -76h92l-57 -74l28 -88l-86 33l-76 -53l5 90z" />
<glyph unicode=";" horiz-adv-x="559" d="M209 983l90 27l29 86l51 -76h92l-57 -74l28 -88l-86 33l-75 -53l4 90zM213 129l90 27l29 86l51 -76h92l-57 -74l28 -88l-36 14q4 -51 -9 -110q-27 -106 -94 -182q-12 -12 -29.5 -13.5t-31 10t-14 29t11.5 29.5q53 61 75 147q10 45 7 84l-41 -28l4 90z" />
<glyph unicode="=" horiz-adv-x="1202" d="M116 320.5q-1 17.5 10.5 31t29.5 13.5q395 23 913 22q16 0 28.5 -12.5t12.5 -29.5t-12.5 -29.5t-28.5 -12.5q-514 0 -909 -20q-18 -2 -30.5 9t-13.5 28.5zM119 734.5q-2 17.5 10.5 30.5t28.5 15q201 12 458 15q113 2 336 2h123q18 0 30.5 -12.5t12.5 -30t-12 -29.5 t-31 -12h-123q-223 0 -334 -2q-256 -2 -454 -15q-18 -2 -30.5 9.5t-14.5 29z" />
<glyph unicode="?" horiz-adv-x="1085" d="M217 1130q0 143 100 244q92 88 230 113q135 25 250 -25q129 -55 176 -184q59 -164 -6 -315q-27 -57 -74 -123q-31 -41 -90 -109q-2 0 -8.5 -8t-8.5 -10q-10 -10 -16 -19q-74 -84 -104 -137q-41 -74 -41 -141q0 -18 -12.5 -30.5t-30 -12.5t-29.5 12t-12 31q0 90 53 182 q35 61 113 152q6 8 16 18l10 10l6 8q57 66 86 105q41 55 64 106q53 119 4 252q-33 94 -129 135q-92 41 -203 21q-113 -20 -184 -90q-76 -76 -76 -185q0 -18 -12.5 -30.5t-29.5 -12.5t-29.5 12.5t-12.5 30.5zM473 55l55 72l-28 88l88 -29l74 54l-3 -93l76 -53l-88 -26 l-29 -88l-53 75h-92z" />
<glyph unicode="@" horiz-adv-x="1912" d="M238 559q-66 279 104 553q145 233 428 338q371 139 719 -33q272 -133 328 -377q45 -201 -64 -413q-47 -92 -113.5 -163t-136.5 -104q-82 -41 -152.5 -18t-109.5 104q-14 35 -22 56q-117 -113 -254 -133q-156 -25 -234 86q-82 119 -24 352q37 150 149 244q106 88 231 90 q135 4 216 -94q41 -51 57 -123q6 0 10 -2q16 -6 24.5 -21.5t2.5 -32.5q-8 -25 -25 -71q-2 -18 -4 -41q0 -13 -10 -23q-18 -63 -53 -123q-12 -41 -9 -65q2 -23 21 -64q25 -49 61.5 -59t89.5 14q55 27 112.5 88.5t96.5 141.5q96 184 58 356q-47 205 -283 319q-317 156 -653 31 q-256 -94 -385 -303q-154 -246 -95 -491q53 -227 261 -377q213 -154 485 -156q301 0 571 191q14 10 32 7t27 -17.5t6 -31t-15 -26.5q-293 -207 -621 -205q-301 0 -534.5 169t-292.5 427zM788 786q-49 -197 13 -284q47 -68 151 -51q113 18 209 112q39 39 68 82q2 10 6 21 q2 4 9 26.5t20.5 59t23.5 61.5q2 117 -51 180q-53 66 -147 64q-96 -2 -181 -72q-92 -76 -121 -199z" />
<glyph unicode="A" horiz-adv-x="1466" d="M-66 143l132 72l14 150l86 -80q47 133 135 348q111 268 242 561q10 20 26 63q2 4 2 7q12 27 21 45q-37 -4 -72 -9l64 103l-49 110l116 -26l90 80l9 -101v-2l4 -8v-6l4 -8l96 -56l-63 -26q51 -127 102 -279q47 -133 129 -385q2 -8 8 -30q94 -291 144 -428l77 71l13 -135 l116 -68l-125 -53l-28 -133l-88 105l-135 -15l69 115l-55 125l67 -17q-37 106 -92 279q-188 -18 -396 -18q-121 0 -249 6q-4 0 -10 2q-53 -131 -86 -226l84 19l-64 -135l76 -129l-147 16l-101 -110l-28 145zM371 582q106 -4 207 -4q203 0 389 16q-8 23 -17 47q-6 20 -8 31 q-82 250 -127 383q-43 123 -84 227q-6 -31 -12 -59l-49 55q-8 -16 -21 -47q0 -2 -2 -6q-18 -43 -29 -66q-131 -291 -239 -559q-4 -8 -8 -18z" />
<glyph unicode="B" horiz-adv-x="1384" d="M20 76l144 71l20 158l62 -61q-2 186 -19 499q-8 166 -10 232q-8 197 -8 350l-64 -37l15 119l-88 80l116 22l50 111l59 -107l119 -12l-45 -47q133 26 253 26q156 0 289 -44q123 -39 204 -111t104 -162q7 -29 7 -58q0 -63 -34 -123q-50 -87 -166 -151q-37 -20 -82 -38 q104 -27 187 -86q84 -63 128 -149q38 -74 38 -150q0 -12 -1 -25q-8 -96 -75.5 -176t-186.5 -131q-184 -79 -469 -79q-70 0 -145 5l35 -65l-158 26l-111 -117l-24 158zM293 1327q0 -154 8 -348q2 -64 8 -197h27q431 0 651 123q90 49 128 111q28 46 28 94q0 18 -4 35 q-16 66 -82 122t-168 89q-123 41 -265 41q-132 0 -280 -35q6 -33 14 -66zM313 698q16 -303 17 -501l125 22l-66 -129q101 -9 191 -9q258 0 424 71q199 86 210 239q1 10 1 20q1 55 -29 111q-34 66 -103 117q-123 89 -286 89q-47 0 -97 -7q-10 0 -18 2q-153 -25 -341 -25h-28z " />
<glyph unicode="C" horiz-adv-x="1595" d="M111 750v8q0 308 161 522q186 248 506 248q178 0 330 -109q80 -57 149 -143q27 47 52 92l57 -135l145 -31l-112 -96l16 -145l-125 75l-135 -61l35 143l-100 109l94 8q-59 70 -125 115q-129 94 -281 94q-279 0 -438 -213q-145 -192 -145 -472v-7q2 -284 149 -482 q162 -213 434 -213q180 0 316 148q59 63 110 153l-76 13l89 82l-19 120l107 -59l106 55l-22 -118l84 -86l-119 -15l-56 -108q-14 31 -28 61q-51 -90 -115 -156q-160 -174 -377 -174q-313 0 -499 246q-166 219 -168 531z" />
<glyph unicode="D" horiz-adv-x="1466" d="M88 1489l135 31l51 129l72 -119l139 -8l-51 -60h51q62 1 109 1t78 -1q104 -4 186 -22q109 -23 205 -70q162 -82 246 -256q71 -146 71 -330v-24q-2 -195 -80.5 -370t-212.5 -279q-119 -94 -391 -107q-30 -1 -63 -1q-97 0 -213 9l8 -14l-119 20l-86 -84l-14 119l-109 56 l109 51l20 119l15 -15q-2 127 -6 412q-6 416 -7 614q-25 -14 -47 -30l11 139zM315 1329v-86q0 -209 7 -567q4 -332 6 -481l102 16l-57 -107q2 -2 2 -4q8 0 14 -2q135 -11 245 -11q31 0 60 1q244 10 342 88q117 92 187.5 251t72.5 335v20q0 166 -63 295q-72 147 -207 217 q-86 43 -184 64q-76 16 -174 20q-30 1 -75.5 1t-107.5 -1h-79l24 -98q-57 25 -115 49z" />
<glyph unicode="E" horiz-adv-x="1437" d="M215 1386q-2 16 9.5 30t27.5 16q10 2 20 -2q4 0 9 2q49 2 149 8q176 10 264 14q102 5 190 5q66 0 126 -3l-27 62l135 -33l103 92l10 -137l121 -70l-127 -53l-29 -137l-92 106l-137 -14l61 100q-61 3 -131 3q-93 0 -201 -5q-86 -4 -260 -14q-92 -6 -135 -8 q15 -182 15 -429q0 -55 -1 -112h277q37 2 113 2q203 2 294 2l-22 53l86 -20l65 59l9 -88l77 -45l-84 -35l-18 -88l-57 68l-88 -8l12 20q-88 0 -272 -2q-78 0 -115 -2h-277q-2 -4 -2 -10q0 -59 -2 -181q-6 -260 -6 -387v-6v-2v-2v-10q6 0 12 -2q37 -2 105 -2q111 -4 305 -4 q123 0 291 2h49l-45 100l119 -29l88 80l10 -118l104 -62l-110 -45l-27 -119l-78 92l-118 -12l16 29h-6q-170 -2 -293 -2q-195 0 -307 4q-68 0 -107 4q-23 0 -34 2q-23 2 -33 10q-12 8 -19 23q-2 6 -4 14q-2 10 -2 27v20v2v4v2q0 127 6 390q2 121 4 180q1 88 1 170 q0 297 -17 501z" />
<glyph unicode="F" horiz-adv-x="1374" d="M139 14l64 119l-62 119l92 -16q3 84 3 179q0 128 -5 277q-4 111 -12 326q-8 193 -12 287v6q0 2 -2 8v6q-2 8 -2 14q-2 20 0 33q0 10 2 19q6 16 16 26q18 16 74 23q39 4 104 4q42 2 97 2q83 0 194 -4q76 0 172 -4q25 0 125 -4l-29 65l121 -29l92 84l11 -124l108 -62 l-116 -49l-25 -121l-82 94l-123 -12l41 70q-100 4 -125 4q-98 4 -172 4q-109 4 -191 4q-54 0 -96 -2q-61 0 -98 -4q-10 -2 -16 -2v-6q0 -6 2 -13v-4v-10q2 -8 2 -14q4 -92 12 -285q6 -137 8 -207q268 -10 617 -10l-31 67l98 -22l74 68l8 -101l86 -49l-92 -39l-20 -98l-66 76 l-98 -11q6 12 14 25q-328 2 -586 10v-37q5 -159 6 -292q0 -67 -2 -128l48 50l18 -134l121 -59l-121 -59l-18 -131l-93 92h-10h-6z" />
<glyph unicode="G" horiz-adv-x="1556" d="M205 874q39 246 180 414q154 182 363 199q18 1 35 1q216 0 436 -181q29 -25 51 -47l22 51l60 -107l118 -10l-81 -88l26 -119l-108 51l-105 -61l15 119l-91 80q45 8 91 18q-20 23 -52 47q-197 163 -382 163q-14 0 -29 -1q-174 -14 -305 -168q-125 -152 -162 -375 q-12 -72 -12 -142q0 -155 57 -302q72 -193 235 -275q99 -49 208 -49q56 0 115 13q173 38 286 171q122 142 122 344v15v8l2 6v23q2 6 3 10h-41q-55 -2 -156 -4h-37h-6l-2 -2l63 -139l-149 34l-113 -104l-14 154l-133 75l141 60l31 149l100 -114l154 16q-14 -23 -27 -45 q94 2 146 4h53h16l6 -2q12 0 23 -6q14 -10 20 -27q4 -10 6 -22q2 -14 0 -39v-27v-4q-2 -8 -2 -10v-6q0 -233 -143 -402q-131 -154 -330 -196q-69 -15 -134 -15q-129 0 -245 58q-193 96 -278 319q-60 158 -60 327q0 79 13 160z" />
<glyph unicode="H" horiz-adv-x="1449" d="M90 1423l133 11l66 116l51 -123l131 -28l-102 -86l14 -133q-37 23 -72 45q2 -162 2 -373q8 0 15 -2q134 -39 403 -39h51q72 0 199 4q152 6 205 6v17q2 126 2 234t-2 198q-12 -8 -23 -19l-6 97l-84 49l90 35l21 94l61 -74l96 8l-51 -82l39 -88l-61 17q4 -118 4 -264 q0 -97 -2 -207q-2 -86 -4 -258q-6 -209 -6 -308l71 25l-37 -115l72 -96h-115q-6 -8 -14 -12l-61 -86l-35 114l-117 35l98 72l-2 121l56 -41q0 96 6 293q2 104 2 157q-51 0 -201 -4q-127 -6 -201 -6h-50q-276 0 -419 41v-98q-2 -61 -2 -183q-2 -174 -2 -258l31 27l8 -100 l86 -50l-92 -38l-20 -99l-66 76l-100 -10l53 86l-41 92l57 -14q0 92 2 288q0 123 2 185q0 340 -2 559q-39 -16 -80 -35l33 129z" />
<glyph unicode="I" horiz-adv-x="567" d="M129 182l119 19l14 32v193q-1 196 -1 357q0 322 5 505q-59 -6 -119 -12l64 102l-49 111l117 -29l90 82l8 -121l104 -59l-110 -47l-23 -109q-3 -164 -3 -456q0 -146 1 -324v-207l8 -14l119 -17l-84 -86l23 -116l-109 53l-104 -59l18 120z" />
<glyph unicode="J" horiz-adv-x="980" d="M-37 305l109 55l14 119l86 -84l119 23l-55 -107l59 -106l-66 10q59 -94 146 -137q55 -27 108 -27q114 0 217 123q61 74 80 248q9 77 9 176q0 87 -7 190q-8 121 -30 295q0 16 -9.5 88t-11.5 82q0 14 -2 27l-37 -27l4 99l-80 59l97 27l30 92l56 -82h98l-61 -78l28 -94 q-27 10 -53 20l4 -32q2 -12 10.5 -83t10.5 -87q20 -176 30 -299q7 -107 7 -197q0 -104 -9 -186q-23 -199 -100 -291q-96 -117 -213 -144q-37 -9 -74 -9q-71 0 -139 34q-119 59 -193 188l-53 -55l-18 119z" />
<glyph unicode="K" horiz-adv-x="1460" d="M59 119l103 92l-21 137l78 -43q2 84 6 240q2 80 4 121q5 185 5 336q0 181 -7 311q-36 -15 -71 -27l30 107l-67 86l110 2l62 94l37 -107l106 -28l-88 -68l4 -110q-18 12 -37 24q5 -112 5 -259t-5 -329q53 49 127 113q27 23 64 57q51 43 65 56q162 143 256 231 q78 74 140 139q-23 6 -45 11l81 71l-12 107l94 -56l99 43l-25 -104l72 -80l-107 -10l-55 -94q-14 35 -29 67q-70 -74 -155 -155q-94 -88 -258 -234q201 -313 512 -641l47 94l59 -120l131 -21l-96 -92l22 -131l-118 61l-117 -61l22 131l-96 94l64 10q-299 317 -496 621 q-37 -33 -63 -55q-104 -92 -174 -158q-4 -4 -11 -8q0 -16 -2 -41q-4 -158 -6 -242l82 41l-27 -135l97 -98l-138 -17l-63 -123l-57 125z" />
<glyph unicode="L" horiz-adv-x="1261" d="M82 1425l119 15l55 108l51 -108l119 -21l-88 -82l18 -118q-27 14 -53 28q-10 -203 -14 -293q-6 -106 -10 -200q-10 -285 -13 -447q-1 -36 -1 -66.5t1 -54.5l17 -20l96 4l-37 -53q16 0 35 -2q49 -1 116 -1t152 1q70 2 168 4h14l-53 117l148 -35l110 102l12 -151l132 -76 l-140 -58l-30 -147l-99 115l-149 -17l39 66q-84 -2 -150 -2q-87 -2 -155 -2t-117 2h-31l12 -33l-92 29l-76 -60l-2 97l-80 53l78 26q0 4 -2 9q-1 28 -1 66t1 87q2 164 13 451q4 94 10 200q4 92 14 302l-76 -39l23 118z" />
<glyph unicode="M" horiz-adv-x="1875" d="M37 94l104 58l15 120l37 -36q6 57 12 143q10 145 24 369q8 174 27 516q-51 -2 -100 -7l65 101l-43 112l115 -32l94 75l4 -120l103 -64q-45 -16 -88 -33q16 -31 36 -69q76 -147 215 -441q6 -12 13 -24q18 -39 192 -404q6 16 12 31q10 -16 19 -33q25 61 51 125 q90 213 164 383q98 225 162 361q16 37 30 65q-43 14 -83 29l98 67v121l96 -73l115 36l-41 -112l71 -98q-45 2 -90 2q4 -29 9 -60q37 -231 65 -426q2 -4 3 -13t1 -11q68 -444 86 -584l51 43l7 -119l102 -63l-113 -43l-26 -119l-76 94l-121 -10l66 102l-47 111l75 -21 q-14 129 -86 594q-2 12 -4 27q-31 195 -65 426q-2 4 -2 10q-12 -16 -27 -35q-6 20 -10 39l-8 -16q-61 -131 -160 -359q-74 -170 -164 -380q-31 -76 -61 -148l55 -4l-64 -70l21 -94l-88 41l-82 -49l12 94l-72 64l56 12q-197 412 -205 430q-6 12 -12 27q-139 291 -215 438 q-4 8 -9 14l-8 -33l-14 17q-14 -291 -25 -447q-12 -223 -22 -368q-8 -113 -17 -178l88 18l-51 -109l60 -104l-119 16l-82 -90l-21 119z" />
<glyph unicode="N" horiz-adv-x="1511" d="M53 1485l144 -12l92 110l30 -141l136 -53l-95 -56q18 -18 25 -22q197 -219 412 -520q129 -180 315 -469q6 43 12 84l62 -62q2 80 8 342q2 43 2 78q6 264 8 407l-55 -30l20 119l-88 83l119 19l53 108l54 -108l120 -14l-86 -86l23 -119l-76 39q-2 -145 -8 -420 q0 -35 -2 -78q-6 -307 -8 -387l131 22l-76 -145l78 -143l-162 26l-113 -118l-24 161l-148 72l117 57q-211 324 -344 512q-211 295 -403 508l-4 -78l-62 54v-15q-1 -52 -1 -115q0 -126 3 -294q4 -307 12 -568l60 41l-6 -120l94 -74l-117 -31l-43 -112l-63 102l-121 4l78 92 l-33 117l67 -29q-8 262 -12 576q-3 171 -3 296q0 63 1 115v47l-102 -26l55 133z" />
<glyph unicode="O" horiz-adv-x="1673" d="M106 1001q41 129 127 237t203 179q176 106 362 106q72 0 146 -16q246 -53 420 -280q12 37 25 71l71 -106h129l-80 -102l39 -123l-71 26q42 -136 42 -267q0 -124 -38 -243q-45 -137 -138.5 -249.5t-218.5 -184.5t-261 -91q-47 -7 -93 -7q-88 0 -174 24q-295 82 -444 414 q-85 189 -85 370q0 123 39 242zM180 977q-35 -107 -35 -217q0 -165 78 -338q135 -299 395 -373q77 -22 154 -22q156 0 313 90q113 63 197 164.5t123 226.5q36 108 36 221q0 125 -44 258l-74 -51l4 129l-104 76l90 26q-160 215 -387 265q-64 14 -127 14q-164 0 -322 -96 q-219 -131 -297 -373z" />
<glyph unicode="P" horiz-adv-x="1380" d="M147 16l64 103l-49 110l82 -18q0 66 -2 199v360q0 287 6 504q-52 -2 -101 -2l86 117l-49 139l140 -45l114 88v-113q112 16 213 17q202 0 359 -66q125 -51 199.5 -137t84.5 -189l2 -30q0 -87 -50 -167q-58 -93 -177 -157q-198 -107 -505 -107q-108 0 -230 13q-4 0 -8 2 v-227q2 -106 2 -164l41 37l8 -121l104 -60l-110 -47l-25 -116l-78 90zM326 717q8 2 16 2q119 -13 224 -13q284 0 464 97q94 51 142 123q40 61 40 125q0 12 -2 24q-8 78 -68.5 146.5t-164.5 111.5q-140 58 -325 58q-72 0 -150 -9l57 -41l-139 -45l-41 -139l-49 68 q-4 -199 -4 -455v-53z" />
<glyph unicode="Q" horiz-adv-x="1613" d="M156 725q2 236 106 432q111 213 303 295q70 31 150 41q31 3 58 3q54 0 95 -13q285 -29 447 -262q80 -115 117 -261q27 -109 27 -222q0 -37 -3 -74q-14 -156 -76.5 -289t-167.5 -221q-2 0 -4 -2q27 -20 58 -41q-7 34 -11 69l105 -59l108 51l-24 -117l84 -88l-119 -12 l-57 -107l-49 109l-119 23l55 49q-55 37 -102 71q-143 -86 -324 -86q-108 0 -229 31q-213 55 -330 258q-98 173 -98 404v18zM240 723v-18q0 -208 88 -361q98 -172 278 -217q111 -29 209 -29q138 0 250 58q-104 90 -158 172q-10 16 -6 32.5t18.5 25.5t32 6t27.5 -17 q49 -80 162 -172q8 8 18 16q90 76 145.5 193.5t67.5 257.5q2 33 2 66q0 103 -24 202q-31 131 -103 233q-141 201 -383 228q-6 0 -12 2q-29 2 -57 2q-14 0 -27 10q-88 -2 -170 -37q-164 -72 -262 -258q-94 -178 -96 -395z" />
<glyph unicode="R" horiz-adv-x="1529" d="M90 117l105 92l-19 137l68 -41q-2 82 -6 232q-2 102 -5 153q-3 144 -3 266q0 168 6 293l-89 -2l91 121l-50 139l142 -47l119 90v-98q18 2 45 2q127 6 196 6q221 0 359 -49q184 -66 266 -227q29 -57 35 -123q1 -15 1 -29q0 -49 -16 -88q-63 -158 -202 -203 q-41 -14 -86 -24q16 -23 32 -51q55 -96 123 -267q27 -70 62 -163q2 -2 4 -9l63 56l10 -119l105 -62l-113 -45l-24 -118l-78 92l-121 -13l64 103l-50 110l58 -14q-33 86 -58 152q-66 164 -118 254q-29 49 -52 77h-2q-109 -14 -260 -18q-61 -3 -158 -3q-48 0 -106 1h-111 q2 -45 5 -141q4 -164 6 -248l92 43l-29 -135l94 -101l-137 -12l-67 -121l-56 125zM317 764h113q85 -1 150 -1t110 1q268 8 416 57q104 33 154 154q8 22 8 51q0 14 -2 30q-6 48 -27 89q-66 133 -219 186q-123 45 -330 45q-68 0 -192 -6h-9l80 -55l-143 -45l-43 -142l-66 93 q-3 -93 -3 -207t3 -250z" />
<glyph unicode="S" horiz-adv-x="1415" d="M41 330l123 63l16 135l96 -96l136 27l-62 -123l68 -119l-99 14q33 -45 89 -79q119 -74 301 -80q16 -1 32 -1q158 0 279 56q135 63 151 172q6 44 6 82q0 68 -20 117q-27 66 -92 106q-59 35 -162 55q-63 14 -203 29h-4q-129 14 -190 27q-106 20 -176 53q-182 88 -191 303 v17q0 207 144 319q124 98 313 98h22q195 -4 363 -104q106 -63 174 -154l37 53l35 -102l102 -29l-86 -65l4 -109l-88 64l-100 -39l31 104l-66 84l55 2q-57 68 -141 117q-150 90 -322 94h-22q-159 0 -258 -80q-113 -89 -113 -256v-12q6 -164 144 -229q59 -29 153 -47 q59 -10 185 -25h4q143 -16 211 -31q117 -23 188 -65q153 -92 153 -292q0 -46 -8 -97q-23 -152 -198 -236q-136 -64 -314 -64q-18 0 -36 1q-203 6 -340 92q-80 47 -121 117l-56 -60l-22 135z" />
<glyph unicode="T" horiz-adv-x="1429" d="M-8 1389l90 59l4 108l84 -67l104 31l-22 -62q231 0 377 -2q197 -2 360 -8l-45 100l146 -37l112 103l12 -152l132 -73l-140 -58l-30 -147l-99 112l-149 -14l49 82q-147 6 -324 8q4 -117 17 -358q8 -174 12 -262q12 -297 16 -508l86 20l-49 -114l66 -107l-125 12l-80 -96 l-27 123l-116 45l108 66l8 124l45 -41q-4 197 -16 472q-4 88 -12 262q-10 244 -17 362q-115 2 -303 2l31 -47l-109 6l-65 -86l-29 105z" />
<glyph unicode="U" horiz-adv-x="1513" d="M109 1477l120 -11l78 93l27 -117l110 -45l-102 -62l-8 -121l-45 39q0 -31 -2 -79q-3 -121 -3 -205q0 -42 1 -74q2 -369 80 -573q66 -180 290 -265q56 -19 128 -19h7q76 1 144 25q156 55 215 211q45 121 45 344q-2 43 -4 130q-2 94 -2 139t2 139q2 68 2 102q2 29 2 56 l-88 -58l10 150l-117 94l148 35l53 141l78 -129l152 -8l-99 -113l39 -145l-94 39q2 -29 0 -62q0 -37 -2 -104q-2 -94 -2 -137t2 -137q2 -88 4 -132q0 -238 -51 -372q-72 -193 -264 -262q-83 -27 -173 -29h-12q-83 0 -151 25q-123 45 -203 112q-94 82 -139 199 q-82 219 -84 604q-1 32 -1 74q0 84 3 207q2 72 2 108l-78 -20l47 110z" />
<glyph unicode="V" horiz-adv-x="1472" d="M53 1311l94 47l15 106l76 -75l104 18l-49 -94l51 -94q-31 4 -59 10q53 -154 145 -387q12 -29 23 -58q66 -164 155 -387q8 -20 33 -79.5t25 -61.5l4 -8l30 49l25 -68q10 31 25 68q57 154 165 457q4 10 7 16q8 25 71.5 202t77.5 216q8 23 14 43l-106 -12l76 127l-60 133 l144 -33l110 98l11 -147l129 -74l-138 -55l-30 -146q-29 35 -60 70q-6 -16 -12 -33q-12 -37 -75.5 -215t-72.5 -203q-2 0 -4 -6t-2 -10q-109 -303 -168 -457q-20 -57 -36 -98l67 -16l-94 -74l6 -121l-100 68l-111 -45l33 116l-78 92q43 2 86 5q-4 12 -12 30q0 2 -24.5 61.5 t-33.5 78.5q-90 225 -155 389q-12 29 -23 57q-92 236 -147 389l-41 -41l-17 105z" />
<glyph unicode="W" horiz-adv-x="1992" d="M-18 1434l114 30l41 115l66 -100l121 -2l-76 -95l35 -116l-72 26q6 -29 14 -63q27 -121 88 -316q12 -41 27 -88q16 -55 41 -127q4 -12 20.5 -61t16.5 -55q43 -127 55 -174q2 -6 4 -11l2 -12q10 -39 43 -141l31 51q8 -20 16 -41q4 16 11 33q29 100 112 415q6 20 10 37 q63 236 99 353q25 82 45 135q-27 4 -53 8l69 68l-18 94l86 -45l84 45l-15 -94l70 -66l-41 -6q31 -74 62 -162q31 -86 81 -258q2 -10 5 -16q41 -137 65 -209q37 -115 76 -201q0 -2 9 -23.5t20.5 -52t19.5 -49.5l55 62q6 -27 11 -56q53 129 120 408q6 25 30 122t28 111 q29 125 51 195l-86 -8l61 102l-49 111l119 -29l88 82l10 -121l105 -61l-111 -45l-26 -119q-18 23 -37 45q-18 -63 -45 -170q-2 -16 -26 -113.5t-30 -120.5q-78 -322 -143 -462q-2 -2 -2 -5q0 -4 -2 -6l65 -28l-96 -52q-4 -8 -6 -16q-4 -4 -6 -8q-6 -51 -12 -101l-86 84 l-119 -24l53 108l-59 105l61 -8q-6 18 -17.5 45.5t-17.5 44.5l-6 18q-41 90 -80 209q-25 74 -65 211q-2 6 -4 16q-51 172 -80 256q-29 78 -56 144l-24 -49q-8 16 -19 34q-14 -45 -32 -104q-35 -115 -99 -350q-4 -16 -8 -35q-84 -317 -115 -420q-16 -51 -28 -88l84 -20 l-94 -76l10 -121l-101 66l-112 -48l31 117l-78 92l82 4q-2 4 -4 9q-35 115 -50 165q-2 6 -4 11.5t-2 11.5q-14 45 -53 170q-2 6 -18.5 55t-20.5 62q-25 74 -41 127q-14 47 -29 90q-59 197 -88 321q-10 39 -14 70l-57 -39l4 119z" />
<glyph unicode="X" horiz-adv-x="1415" d="M43 197l107 -11l69 80l12 -55q184 217 412 524q-276 379 -426 590q-8 -14 -16 -31l-33 78l-84 17l63 55l-10 84l74 -43l76 37l-19 -82l58 -64l-39 -2q143 -203 407 -567q154 209 269 383l-52 -4l64 102l-49 111l116 -29l91 80l10 -119l104 -61l-112 -45l-25 -119l-57 68 q-129 -195 -308 -439q242 -332 383 -526l35 63l47 -110l119 -23l-90 -80l14 -120l-104 61l-109 -51l27 119l-82 88l74 6q-137 186 -365 502q-227 -305 -409 -519l55 -24l-92 -53l-8 -107l-80 72l-105 -25l43 98z" />
<glyph unicode="Y" horiz-adv-x="1363" d="M45 1315l74 94l-33 117l113 -43l98 67l-6 -120l96 -72q-39 -10 -78 -21q23 -37 55.5 -93t56 -95t32 -53.5t18.5 -30.5q98 -166 158 -254q31 -45 51 -70l2 2q35 51 66 95q80 115 90 131q8 14 18 28q106 160 133 201q37 57 58 94q-27 -2 -54 -6l54 90l-43 94l100 -24l78 70 l8 -105l90 -51l-96 -39l-21 -102q-20 23 -39 45q-23 -45 -63 -111l-135 -203q-8 -14 -17 -26q-12 -18 -92 -133l-2 -3q-29 -41 -63 -92q-10 -14 -19 -26q18 -102 19 -271v-139v-6l43 39l10 -119l104 -61l-110 -45l-27 -119l-78 92l-121 -12l64 102l-49 111l78 -19q0 14 2 39 v137q0 156 -17 248l-6 6q-10 8 -24 27q-25 29 -62 86q-59 88 -160 256q-10 16 -18 31q-8 12 -27.5 46t-51.5 87t-50 86l-21 -60l-67 101z" />
<glyph unicode="Z" horiz-adv-x="1490" d="M-25 223l119 17l56 106l24 -49q25 39 62 90q106 152 303 393q25 29 49 62q102 123 332 397q47 55 73 86l-24 -4l18 33q-115 -10 -375 -62q-39 -6 -82 -16q-37 -6 -208 -43q16 -14 32 -29l-118 -22l-50 -111l-57 107l-121 12l84 88l-26 117l108 -52l105 62l-13 -96 q215 43 248 49q43 10 82 16q279 55 395 64l-12 32l80 -20l63 55q2 -39 6 -78q4 -4 9 -10l63 -37l-78 -30l-16 -82q-12 14 -27 30q-29 -35 -94 -114q-229 -272 -332 -396q-27 -33 -49 -61q-195 -240 -301 -387q-43 -61 -72 -109l88 -14l-59 -55h10h4h5h12q80 0 301 16 q96 6 151 8q108 5 193 5q43 0 80 -1q51 -2 94 -6q-12 29 -27 58l119 -29l88 80l10 -119l105 -61l-111 -45l-24 -119l-80 92l-119 -12l43 69q-76 9 -185 9q-81 0 -181 -5q-55 -2 -152 -8q-221 -14 -305 -14l-29 -2h-20l10 -62l-107 58l-108 -54l22 117z" />
<glyph unicode="[" horiz-adv-x="600" d="M129 580q4 319 14 546q6 119 13 189q8 84 18 104q12 20 39 31q16 6 41 8q35 6 90 4q33 0 78 -2q47 -2 51 -2q18 0 29.5 -13t11.5 -30.5t-12.5 -29t-30.5 -11.5h-20q-2 0 -13 2h-4h-16q-43 2 -74 2q-51 2 -80 -2q-10 -2 -16 -4q-2 -4 -2 -8q-4 -20 -6 -55q-6 -70 -13 -187 q-10 -225 -14 -544q-10 -688 14 -857q4 -2 6 -2q27 -4 74 -6q90 -2 129 0q16 2 29.5 -9t15.5 -27.5t-9.5 -31t-27.5 -14.5q-45 -4 -139 -2q-53 2 -84 9q-20 2 -35 8q-10 2 -18 8q-14 10 -18 29q-31 125 -21 897z" />
<glyph unicode="\" horiz-adv-x="700" d="M-6 1384q-6 16 1 33t22.5 23t32 -0.5t22.5 -22.5q72 -172 211 -530q147 -375 221 -557q57 -139 108 -262q6 -14 0 -31t-22.5 -24t-32.5 0t-22 24q-51 121 -107 260q-76 182 -223 559q-139 356 -211 528z" />
<glyph unicode="]" horiz-adv-x="501" d="M46 1406q-1 17 9.5 30.5t26.5 15.5q45 4 139 2q53 0 84 -4q23 -2 35 -8q10 -2 18 -8q16 -10 21 -29q33 -125 37 -895q2 -319 -4 -547q-2 -119 -9 -190q-6 -84 -16 -105q-12 -20 -39 -30q-16 -6 -39 -11q-35 -6 -92 -6q-35 0 -84 2h-15.5h-13.5q-10 2 -16 2 q-16 0 -28.5 12.5t-12.5 30t12.5 29.5t28.5 12q6 0 21 -2h10h16q49 -2 82 -2q51 0 80 6q10 0 16 2q0 4 2 11q2 20 4 55q6 70 9 186q6 225 4 543q-4 690 -31 858h-6q-27 4 -74 6q-90 0 -129 -4q-16 -2 -30.5 9.5t-15.5 28.5z" />
<glyph unicode="^" horiz-adv-x="993" d="M168 682q25 74 68 164q25 51 79 155h2q84 158 117 238q2 6 8 29q0 4 2 12t4.5 16.5t3.5 14.5t1 8q10 39 16 61q6 16 10 27q10 18 23 29q25 16 51 2q8 -6 16.5 -16.5t16.5 -28.5q12 -25 18 -45q84 -264 299 -607q8 -14 4 -31.5t-18.5 -26.5t-31.5 -5t-26 18 q-207 332 -296 596q-8 -35 -11 -43q-8 -31 -12 -43q-35 -84 -121 -243q0 -2 -2 -2q-53 -100 -78 -152q-41 -84 -63 -152q-4 -16 -19.5 -24t-32 -3t-24.5 20.5t-4 31.5z" />
<glyph unicode="_" horiz-adv-x="1202" d="M-16 -211q-2 16 8 30.5t26 16.5q219 31 564 23q57 -2 170 -6q217 -6 323 -7q16 0 28.5 -12t12.5 -29.5t-12 -30t-29 -12.5q-106 0 -325 7q-113 4 -170 6q-336 8 -549 -21q-18 -4 -31.5 7.5t-15.5 27.5z" />
<glyph unicode="`" horiz-adv-x="444" d="M100.5 1475.5q-2.5 17.5 9 31t29 15t29.5 -10.5q43 -35 115 -114v-2q41 -47 63 -68q12 -12 12 -29.5t-12 -30t-29.5 -12.5t-29.5 13q-23 23 -66 71q-2 0 -2 2q-66 74 -104 105q-12 12 -14.5 29.5z" />
<glyph unicode="a" horiz-adv-x="1294" d="M104 891l97 8l47 84l16 -43q100 96 264 117q38 5 75 5q77 0 147 -22q102 -34 159 -112q47 -61 54 -180q1 -18 1 -42q0 -66 -8 -178q0 -14 -2 -22q-4 -76 -4 -127v-31q0 -80 15 -131q10 -39 28 -63q8 49 17 98l82 -88l118 18l-59 -106l55 -109l-119 25l-86 -86l-14 121 l-108 55l53 24q-20 29 -35 66q-72 -115 -199 -164q-86 -33 -177 -33q-76 0 -156 23q-174 49 -238 172q-28 52 -28 104q0 92 85 185q61 66 148 102q70 31 162 47q51 10 161 21q129 12 174 30q53 25 56 82v4q-6 94 -37 138q-43 57 -127 83q-58 18 -122 19q-29 0 -60 -4 q-137 -18 -217 -94q27 -6 55 -13l-72 -61l10 -96l-82 51l-86 -39l21 92zM195 208q49 -94 192 -136q67 -19 131 -19q79 0 152 29q150 57 204 219q-2 20 -2 45v23q0 55 7 141v25q2 38 4 65q-10 -6 -23 -12q-37 -14 -92 -25q-35 -6 -104 -12q-109 -10 -156 -19 q-176 -31 -266 -126q-64 -69 -64 -134q0 -32 17 -64z" />
<glyph unicode="b" horiz-adv-x="1140" d="M39 -68l61 105l-51 108l103 -22q-9 121 -9 267v30q2 78 7 166q0 31 2 59q0 2 2 4q2 51 8 129q4 74 6 113q10 186 10 323q0 59 -2 109q-41 -6 -82 -10l64 104l-49 109l116 -27l90 80l11 -121l104 -59l-113 -47l-24 -117l-37 43q1 -34 1 -72q0 -133 -11 -317q70 86 184 143 q110 55 208 56q103 0 193 -62q154 -102 205 -326q20 -85 19 -165q0 -128 -49 -246q-92 -217 -314 -281q-46 -13 -91 -13q-76 0 -148 38q-98 51 -174 162q-33 47 -58 100q0 -61 4 -121l29 29l12 -121l105 -59l-111 -48l-22 -118l-80 90zM227 584q2 -82 33 -175.5t82 -168.5 q68 -100 153 -142q51 -25 106 -25q35 0 71 11q186 51 262 235q44 103 44 217q0 71 -17 146q-43 195 -173 279q-70 48 -152 48q-80 0 -171 -46q-182 -92 -229 -254q0 -2 -3 -4q-4 -72 -6 -121z" />
<glyph unicode="c" horiz-adv-x="1163" d="M82 420q-4 43 -4 84q0 198 92 346q98 160 268 219q75 25 146 25q84 0 161 -35q78 -35 129 -103l41 64l41 -113l117 -30l-96 -74l8 -121l-100 68l-113 -43l35 114l-78 94q39 0 76 3q-37 45 -92 71q-61 27 -128 27q-59 0 -122 -21q-143 -49 -227 -186q-79 -131 -80 -307 q0 -37 4 -76q12 -156 125 -256q100 -90 237 -104q27 -3 52 -3q101 0 174 52q20 14 38 32l-88 -10l72 117l-55 125l133 -31l100 90l13 -135l116 -70l-125 -51l-28 -133l-62 70q-29 -39 -69 -68q-94 -67 -220 -67q-29 0 -59 4q-164 18 -283 125q-133 121 -149 307z" />
<glyph unicode="d" horiz-adv-x="1271" d="M90 352q-21 89 -21 173q0 124 46 239q90 219 311 283q48 14 95 14q74 0 145 -35q98 -49 176 -160q25 -35 45 -73v73q-4 281 -8 408l-35 -23l6 92l-72 58l90 22l31 88l51 -79l92 -2l-59 -72l25 -90l-52 20q4 -133 9 -422q2 -219 4 -323q6 -42 6 -81q0 -23 -2 -44v-2v-19 q6 -156 16 -284l41 49l31 -135l127 -52l-119 -69l-8 -137l-105 90l-133 -33l56 127l-74 117l110 -11q-6 68 -10 142q-72 -104 -205 -172q-112 -58 -212 -58.5t-189 58.5q-156 100 -209 323zM164 371q47 -193 176 -277q70 -46 150 -46q82 0 176 48q180 94 225 256q2 9 6 15 q0 14 -2 28q-2 72 -4 142q-23 158 -113 284q-70 98 -154 138q-51 24 -106 24q-35 0 -72 -10q-184 -55 -260 -240q-42 -100 -41 -208q-1 -75 19 -154z" />
<glyph unicode="e" horiz-adv-x="1157" d="M-63 571l135 60l26 143l47 -51q35 115 123 213q96 112 224 140q44 10 87 10q83 0 164 -37q117 -51 196 -159t97 -239v-4q0 -4 1 -8t1 -6q2 -10 2 -19q4 -18 2 -32q0 -10 -4 -19q-4 -16 -18 -24q-25 -18 -154 -19q-88 0 -252 4q-35 2 -84 2q-211 8 -251 9l53 -111l-117 25 q39 -143 154 -250q129 -123 271 -123h17q90 2 160 61l-90 4l80 92l-33 117l113 -47l100 68l-8 -103q10 -12 8 -26l84 -68l-117 -29l-43 -112l-32 53q-94 -84 -220 -88h-18q-174 0 -326 143q-125 117 -170 273l-65 -60l-14 146zM211 668q66 8 131 16l-43 -72q35 -2 233 -8 q49 0 84 -2q164 -4 250 -4q53 0 86 2q7 2 13 2v2q-2 6 -2 17v6q-2 4 -3.5 9t-1.5 7q-14 109 -81.5 200t-165.5 134q-64 30 -131 30q-34 -1 -70 -9q-104 -24 -184 -113q-88 -100 -115 -217z" />
<glyph unicode="f" horiz-adv-x="757" d="M-129 1071l119 27l45 112l61 -104q59 -2 119 -6q0 184 49 278q54 108 163 108q19 0 40 -3l-8 20l78 -18l59 53l8 -80l70 -41l-76 -31l-16 -79l-54 61l-79 -8q12 20 26 41q-27 7 -49 7q-18 0 -33 -5q-37 -12 -59 -60q-42 -78 -42 -246q0 -21 1 -44v-13q74 2 151 7l-16 36 l70 -16l53 49l6 -72l64 -34l-66 -29l-14 -72l-47 54l-74 -9q4 6 8 13q-66 -2 -131 -4q4 -51 10 -119l10 -88q4 -45 7 -66q4 -75 4 -176q0 -68 -2 -147v-66l86 45l-25 -141l102 -101l-143 -20l-63 -127l-64 129l-141 20l102 101l-22 141l90 -47v66q2 79 2 146q0 100 -4 173 q-2 18 -6 62q-8 68 -11 88q-6 72 -10 127q-37 0 -72 2l19 -74l-111 47l-102 -64l12 121zM166 1042q25 -2 49 -2v11v47z" />
<glyph unicode="g" horiz-adv-x="1239" d="M41 -250l59 68l-22 88l84 -37l78 49l-9 -90l70 -59l-49 -11q61 -72 186 -102q66 -17 131 -17q21 0 42 1q85 8 139 43q88 55 120 254q12 76 17 174q4 61 4 153v6q-35 -68 -80 -120q-129 -156 -309 -162h-14q-171 0 -289 139q-131 154 -133 418q0 270 143 416 q116 119 283 119q17 0 34 -1q182 -12 310 -147q33 -33 57 -74q2 57 6 111l-78 -11l62 105l-52 108l119 -24l88 82l11 -121l106 -57l-111 -50l-22 -118l-47 53q-8 -131 -8 -313v-17q2 -8 2 -16q0 -18 -2 -37v-113q2 -119 2 -176q0 -94 -4 -158q-4 -102 -19 -184 q-16 -102 -49 -174q-41 -90 -104 -131q-70 -43 -171 -53q-29 -3 -57 -3q-73 0 -145 19q-147 37 -225 125l-17 -41l-47 78zM258 176q94 -110 230 -110h12q143 6 252 133q112 135 137 358v45v19q-10 154 -109 258q-106 113 -260 123q-13 1 -25 1q-137 0 -231 -98 q-120 -122 -120 -356q0 -239 114 -373z" />
<glyph unicode="h" horiz-adv-x="1177" d="M94 250l86 -12v575v2v518q-41 -4 -80 -8l60 102l-49 111l116 -27l88 82l13 -120l104 -58l-110 -49l-23 -117l-41 45v-407q141 129 268 176q65 23 122 23q89 0 161 -56q175 -138 175 -582q0 -91 -7 -194l74 27l-35 -115l76 -94l-121 -2l-66 -101l-39 113l-116 33l96 71 l-6 121l59 -41q6 95 6 179q0 136 -16 243q-35 207 -129 281q-48 39 -112 39q-45 0 -97 -19q-133 -49 -293 -211v-497l37 41l22 -119l109 -49l-107 -58l-14 -119l-86 84l-119 -24l54 108z" />
<glyph unicode="i" horiz-adv-x="471" d="M104 1030l76 10l35 68l33 -70l76 -12l-56 -51l11 -76q-12 6 -25 12q2 -412 8 -780l70 -10l-56 -53l13 -76l-68 37l-67 -35l12 76l-53 53l71 10q-6 371 -8 785q-16 -8 -33 -17l15 74zM119 1298l49 82l-41 88l94 -20l72 65l8 -96l86 -47l-90 -39l-18 -94l-64 72z" />
<glyph unicode="j" horiz-adv-x="495" d="M-276 -428l83 86l-22 119l106 -53l107 59l-12 -80q10 -1 20 -1q54 0 90 38q43 43 70 139q33 130 33 369q0 58 -2 123q-4 84 -13 223q-10 193 -12 258q-1 29 -1 54q0 50 3 85l-63 21l59 39l2 71l55 -45l68 21l-27 -66l41 -59q-29 2 -57 4q-3 -31 -3 -76q0 -22 1 -47 q2 -63 12 -256q8 -139 10 -223q3 -76 3 -144q0 -236 -33 -370q-31 -117 -90 -176q-53 -53 -129 -60l47 -43l-119 -20l-51 -111l-56 107zM78 1257l61 105l-51 108l117 -26l88 82l12 -119l105 -59l-111 -48l-23 -118l-79 90z" />
<glyph unicode="k" horiz-adv-x="1128" d="M39 1462l121 -6l73 96l31 -116l115 -41l-103 -66l-2 -121q-20 16 -41 33q-3 -51 -2 -107v-57q2 -127 19 -391q6 -94 10 -147q84 78 254 252v2q125 131 191 192l-74 27l94 57l4 111l84 -72l107 29l-43 -101l61 -92l-111 8l-67 -86q-6 27 -12 52q-61 -57 -177 -179l-2 -2 q-29 -31 -53 -55q33 -131 162 -320q70 -100 160 -208l45 73l43 -112l116 -29l-94 -76l10 -121l-102 66l-111 -45l31 117l-78 92l66 2q-86 102 -152 198q-115 170 -157 299q-96 -98 -179 -169q-6 -4 -10 -7q0 -37 2 -75q2 -96 2 -179l43 23l-18 -90l61 -66l-90 -8l-43 -80 l-30 70q-4 6 -7 12l-88 17l66 59l-12 90l41 -22q0 80 -3 172q-4 104 -18 315v2q-16 264 -18 395v53q0 79 4 148q-47 -15 -92 -29l43 113z" />
<glyph unicode="l" horiz-adv-x="540" d="M78 6l69 119l-57 123l100 -23q-4 94 -14 289q-6 119 -8 180q-7 154 -7 276q0 49 1 93q2 154 18 285l-43 -7l43 74l-35 76l82 -18l64 59l6 -86l76 -41l-78 -33l-16 -84q-12 14 -25 27q-12 -117 -14 -254q-1 -43 -1 -91q0 -120 7 -274q2 -59 8 -178l12 -258l56 51l14 -135 l119 -67l-125 -54l-27 -135l-90 103z" />
<glyph unicode="m" horiz-adv-x="1710" d="M92 1186l115 -8l69 90l29 -111l107 -39l-97 -61l-4 -113l-57 47q-8 -76 -10 -160q14 23 30 43q96 115 205 146q78 23 143 23q149 0 228 -121q25 -37 41 -82q57 104 151 159q78 49 166 49q14 0 28 -1q104 -9 200 -86q90 -72 118 -220q15 -81 14 -196q0 -40 -1 -84 q-2 -55 -11 -152q-8 -90 -10 -127l43 19l-20 -84l55 -66l-86 -4l-45 -74l-31 80l-84 21l68 55l-8 86l32 -20q2 35 9 120q8 94 10 150q2 50 2 94q0 99 -12 166q-25 121 -90 174q-90 74 -180 74q-65 0 -128 -39q-59 -37 -102 -98.5t-57 -128.5q10 -74 10 -166q0 -80 -6 -215 q-4 -57 -4 -80l36 22l-10 -94l70 -61l-92 -19l-37 -86l-45 82l-94 10l63 68l-20 92l51 -22q0 23 4 92q6 131 6 209q0 76 -8 137q-6 12 -4 26v5q-16 109 -58 172q-37 59 -100 77q-30 8 -65 8q-53 0 -119 -18q-84 -25 -165 -122t-87 -201q2 -41 6 -86q2 -35 8 -107 q10 -137 14 -209l60 55l10 -118l107 -60l-111 -47l-25 -119l-79 91l-119 -15l61 105l-51 108l70 -14q-4 72 -15 217q-6 72 -8 106q-2 25 -4 48q-2 4 -2 10v35q-5 89 -5 168q0 117 11 210l-61 -16l41 105z" />
<glyph unicode="n" horiz-adv-x="1138" d="M29 1034l90 56l4 104l80 -68l102 27l-41 -96l58 -88l-70 4q-6 -51 -8 -105q18 27 41 54q100 123 215 155q83 24 152 24q158 0 241 -128q84 -129 88 -406q0 -86 -8 -227q-4 -84 -4 -109q12 8 26 17l-10 -94l70 -62l-92 -18l-37 -86l-45 82l-95 10l64 67l-19 93l58 -29 q2 27 6 133q8 139 8 223q-2 252 -74 363q-43 63 -110 84q-32 9 -71 9q-56 0 -126 -19q-92 -27 -178 -132q-94 -114 -94 -235v-14q2 -6 0 -15q2 -33 4 -71q2 -35 8 -107q10 -137 14 -207l52 49l12 -120l104 -60l-110 -47l-23 -119l-80 90l-120 -14l61 104l-51 109l78 -16 q-4 74 -15 225q-6 72 -8 106q-11 157 -11 276q0 59 3 109l-16 -20l-25 100z" />
<glyph unicode="o" horiz-adv-x="1232" d="M61 672q53 219 213 336q124 91 278 90q72 0 150 -19q10 -2 17 -8q119 -43 201 -127l28 86l72 -106h129l-80 -103l39 -123q-31 13 -64 23q25 -85 25 -173q0 -95 -29 -194q-66 -227 -233 -340q-114 -76 -243 -76q-90 0 -189 37q-207 76 -291 289q-45 114 -45 235 q0 85 22 173zM135 653q-18 -77 -18 -151q0 -108 39 -209q72 -180 247 -246q83 -32 160 -32q108 0 201 63q145 98 201 297q26 90 26 176q0 89 -28 174l-80 -57l4 129l-105 75l78 23q-74 72 -180 106q-6 2 -12 7q-60 13 -114 13q-130 0 -232 -75q-139 -100 -187 -293z" />
<glyph unicode="p" horiz-adv-x="1142" d="M18 -371l101 84l-10 129l77 -49q-2 315 -16 856v4q-2 111 -6 256q-2 61 -2 90l-39 -22l10 92l-70 64l93 16l37 86l45 -82l94 -8l-66 -68l21 -92l-49 23q2 -29 4 -97v-28q37 59 92 104q116 97 261 97q25 0 50 -3q182 -18 297 -168q116 -152 116 -390q0 -23 -1 -46 q-8 -242 -148 -383q-120 -124 -281 -124q-12 0 -24 1q-180 10 -301 164q-25 33 -45 70q4 -223 6 -414l74 31l-33 -125l84 -100l-129 -7l-67 -110l-48 121zM248 651q0 -30 2 -57v-10q0 -252 115 -400q98 -127 243 -135q10 -1 20 -1q128 0 226 99q117 121 125 334q1 20 1 40 q0 214 -101 345q-92 123 -242 138q-19 2 -38 2q-120 0 -216 -78q-119 -100 -135 -277z" />
<glyph unicode="q" horiz-adv-x="1185" d="M78 610q31 240 180 371q115 99 254 99q31 0 63 -5q178 -25 283 -190q4 -2 6 -6q-2 25 -2 49t-2 41l-35 -21l11 92l-70 62l92 18l37 86l45 -82l94 -8l-63 -69l18 -91l-51 23q2 -18 2 -49q4 -174 8 -303q6 -51 6 -107q0 -34 -2 -69q10 -410 11 -707l86 37l-33 -127l84 -98 l-129 -7l-68 -112l-47 123l-127 28l100 82l-10 131l66 -43q0 197 -4 416q-49 -82 -125 -133q-110 -76 -237 -76q-41 0 -83 8q-180 35 -280 193q-86 136 -86 326q0 57 8 118zM156 600q-8 -59 -8 -112q0 -165 73 -279q84 -131 230 -158q37 -8 72 -8q100 0 188 61 q129 90 159 267q1 8 7 14q-2 16 -3 33q-2 8 -1 17t1 18q-2 78 -4 170q-16 129 -75 221q-88 133 -232 155q-24 3 -47 3q-112 0 -207 -80q-127 -111 -153 -322z" />
<glyph unicode="r" horiz-adv-x="913" d="M37 47l100 84l-10 129l57 -37q-2 233 -20 735l-37 -20l12 92l-69 62l92 18l37 86l45 -82l92 -8l-64 -70l21 -90l-51 25v-8q2 -82 4 -150q31 53 67 98q121 135 287 138l-22 47l92 -19l67 64l11 -92l81 -45l-86 -39l-16 -93l-63 70l-93 -12q12 20 25 41q-129 -4 -223 -111 q-104 -119 -117 -285v-8q6 -209 6 -366l94 39l-32 -125l84 -101l-129 -6l-68 -110l-47 120z" />
<glyph unicode="s" horiz-adv-x="1054" d="M-12 197l94 75l-8 123l102 -67l113 45l-33 -117l78 -94q-39 -2 -80 -2q23 -23 51 -41q92 -61 207 -74q20 -2 39 -2q90 0 156 39q84 47 100 147q4 25 4 48q0 93 -66 145q-37 29 -98 51q-41 14 -127 37q-2 0 -6 2q-84 23 -123 37q-68 23 -110 53q-108 72 -108 202 q0 11 1 23q8 133 109 209q88 66 215 66q121 0 219 -62q86 -51 123 -135l26 31l19 -92l86 -37l-82 -45l-8 -94l-70 63l-90 -20l39 86l-49 80q31 -4 59 -9q-27 66 -94 107q-78 49 -178.5 49t-167.5 -51q-72 -53 -78 -152q-1 -9 -1 -18q0 -89 73 -137q35 -23 94 -43 q37 -14 117 -35l6 -2q88 -25 133 -39q72 -29 119 -64q98 -74 98 -202q0 -31 -6 -64q-23 -137 -140 -203q-82 -48 -188 -48q-25 0 -51 3q-135 12 -246 84q-41 29 -74 62l-39 -62l-43 115z" />
<glyph unicode="t" horiz-adv-x="720" d="M-86 930l82 49l6 92l70 -61l90 22l-17 -41q20 4 25 4q43 6 72 9q4 2 8 2q0 111 4 196l-31 -18l10 94l-69 61l92 19l37 84l45 -80l94 -10l-63 -68l20 -92l-53 25q-6 -88 -6 -205q37 2 73 2l-34 30l92 17l37 86l45 -82l94 -8l-64 -68l21 -92l-86 39l-80 -47q2 23 4 45 q-17 1 -34 1l-68 -3q2 -102 6 -221q10 -283 35 -541l35 51l34 -102l105 -31l-88 -65l4 -109l-90 63l-103 -36l33 104l-65 86h59q-27 268 -39 578q-4 115 -6 217q-29 -4 -68 -8q-4 -2 -10 -3l41 -26l-131 -12l-59 -72l-21 90z" />
<glyph unicode="u" horiz-adv-x="1148" d="M96 938l94 10l41 84l41 -84l93 -16l-68 -64l14 -92l-51 27q0 -12 -3 -31.5t-3 -34.5l-2 -14q-16 -129 -21 -211q-2 -38 -1 -73q0 -192 55 -287q39 -66 104 -91q38 -14 87.5 -14t109.5 14q92 20 184 119q109 115 111 242q0 8 2 14q-2 63 -4 150q-6 152 -7 211q-2 10 -2 20 l-45 -39l-4 121l-100 66l113 41l30 116l74 -96l121 8l-68 -100l43 -113l-86 25q0 -23 2 -49q0 -57 6 -209q7 -236 7 -406v-41l26 21l2 -86l72 -47l-82 -29l-23 -84l-51 70l-88 -4l51 71l-30 82l45 -14v78q-25 -37 -58 -72q-109 -117 -225 -141q-67 -15 -124 -15 q-177 0 -261 142q-63 109 -63 317q0 41 2 86q4 84 18 215q0 2 1 12.5t3 25.5t4 28l-37 -19l17 92z" />
<glyph unicode="v" horiz-adv-x="1110" d="M-20 985l90 53l4 107l80 -70l102 29l-41 -98l57 -86l-71 4q10 -31 26 -80q59 -168 90 -256q66 -180 119 -301q27 -61 51 -113l41 74l23 -53q18 55 49 147l6 16q6 16 6 21q8 23 15 39q57 176 98 282q45 117 92 211q-30 5 -59 7l63 67l-20 92l84 -39l82 47l-13 -92l72 -63 l-92 -17l-39 -86l-16 33q-41 -84 -80 -188q-41 -104 -99 -279q-6 -14 -14 -39q0 -4 -6 -20l-6 -17q-41 -123 -64 -186l84 -18l-92 -78l14 -121l-104 61l-109 -49l27 117l-82 90l70 6q-27 51 -53 117q-53 123 -119 305q-33 90 -90 256q-14 39 -23 64l-31 -37l-24 102z" />
<glyph unicode="w" horiz-adv-x="1589" d="M-43 1077l90 31l27 94l57 -78l96 6l-55 -79l35 -90l-57 16q4 -18 8 -41q23 -96 71 -252q10 -33 21 -70q14 -45 33 -102q4 -10 16 -49t14 -43q33 -102 43 -139q2 -4 3 -9.5t3 -9.5q8 -31 35 -112l25 40l12 -32q4 12 6 26q25 80 92 332q4 16 9 29q49 188 77 280 q20 68 35 111q-20 2 -41 4l56 55l-15 76l68 -37l67 37l-12 -76l58 -53l-33 -4q25 -57 49 -129q25 -68 65 -207q2 -10 5 -12q63 -221 112 -328q0 -2 6 -19.5t16.5 -42t14.5 -38.5l47 49l6 -43q43 102 99 326q4 18 22.5 96t22.5 90q23 98 41 156q-35 -4 -70 -9l49 82l-39 88 l94 -20l72 63l8 -96l84 -47l-90 -37l-20 -94l-29 35q-16 -51 -37 -137q-2 -10 -20.5 -89t-24.5 -98q-61 -256 -115 -368v-5q-2 -2 -2 -4l52 -24l-76 -41q-4 -6 -6 -10q-2 -6 -4 -9l-11 -79l-67 65l-94 -18l40 86l-47 84l50 -7q-6 14 -14.5 37t-13.5 36t-5 16 q-49 111 -117 333q0 4 -4 15q-39 137 -64 202q-20 63 -43 115l-20 -39l-14 29q-12 -37 -27 -84q-27 -92 -78 -279q-2 -14 -6 -28q-68 -254 -92 -336q-12 -41 -23 -70l66 -16l-74 -62l8 -96l-82 53l-88 -36l25 92l-64 73l66 2q-2 4 -2 9q-29 90 -41 131l-2 10q-2 4 -2 8 q-10 37 -43 137q-2 4 -14.5 43t-16.5 50q-18 57 -33 102q-12 37 -22 70q-47 160 -72 258q-4 23 -8 41l-43 -35l-4 96z" />
<glyph unicode="x" horiz-adv-x="1067" d="M-20 991l94 76l-8 121l100 -68l113 45l-33 -114l78 -93l-80 -4q78 -123 227 -327q39 59 78 116q86 129 170 232q-20 2 -41 4l67 68l-16 94l86 -43l84 45l-14 -94l67 -68l-94 -14l-41 -86l-29 55q-86 -104 -176 -238q-45 -66 -90 -137q180 -242 324 -416q4 17 8 31l49 -61 l80 6l-45 -66l31 -73l-76 20l-62 -51l-4 80l-65 41l33 12q-137 166 -318 405q-35 -53 -84 -137q-4 -6 -10 -14q-2 -4 -4 -6q-2 -6 -4 -8q-72 -117 -113 -181l78 -18l-92 -76l8 -121l-96 64q-12 -8 -25 -6l-90 -39l31 116l-80 93l121 6l61 104l27 -67q39 59 102 166q4 6 6 6 l4 8q4 8 9 14q61 102 100 164q-168 227 -248 354l-39 -61l-43 113z" />
<glyph unicode="y" horiz-adv-x="1138" d="M14 -371l103 64l6 121l92 -78l115 33l-31 -76q18 6 29 12q70 49 145 234q6 12 10 24q-2 4 -4 10q-41 123 -147 387q-86 211 -125 324q-41 119 -68 217q-16 -12 -30 -27l-5 93l-77 49l86 31l22 88l55 -72l93 6l-52 -76l35 -84q-27 6 -51 15q25 -98 66 -213 q39 -113 122 -322q90 -221 123 -313q33 94 82 260q2 4 20.5 64.5t22.5 76.5q25 80 43 135q55 168 97 258l-80 4l77 91l-30 116l110 -45l103 66l-10 -121l94 -76l-117 -28l-45 -113l-37 61q-39 -84 -88 -237q-16 -55 -41 -135q-6 -14 -24.5 -75t-18.5 -65q-84 -274 -139 -405 q-84 -205 -172 -266q-25 -18 -62 -27l39 -59l-119 8l-75 -94l-29 118z" />
<glyph unicode="z" horiz-adv-x="1220" d="M49 141l90 13l43 82l17 -39q20 31 49 69q80 115 229 299q18 23 39 45q76 96 252 303q35 43 53 66l-16 -2q6 12 14 24q-88 -8 -287 -47q-29 -6 -61 -12q-29 -6 -160 -33l25 -22l-90 -17l-37 -84l-43 80l-92 11l63 67l-18 88l82 -39l80 47l-11 -73q164 33 189 39 q33 6 61 12q211 41 301 47l-10 25l61 -15l48 41l6 -59l6 -6l49 -29l-59 -25l-13 -61l-20 22q-23 -27 -74 -86q-174 -207 -250 -301q-20 -25 -39 -47q-147 -182 -227 -295q-33 -45 -55 -79l67 -13l-45 -41h8h2h5h8q61 0 229 10q72 6 115 9q77 4 141 3q79 0 137 -5l-20 43 l90 -21l68 60l8 -91l78 -45l-84 -36l-19 -89l-59 70l-92 -10l34 53q-61 7 -149 7q-59 0 -129 -3q-43 -2 -115 -8q-170 -10 -233 -10l-21 -2h-16l6 -45l-80 43l-82 -41l17 90z" />
<glyph unicode="{" horiz-adv-x="712" d="M20 567q2 25 25 35l8 4q125 76 170 187q12 35 23 92q6 39 16 119q4 47 6 65q10 88 23 143q18 80 49 134q78 141 246 141q18 0 30.5 -12.5t12.5 -30t-12.5 -29.5t-30.5 -12q-119 0 -174 -98q-41 -74 -60 -246q-2 -18 -8 -64q-8 -82 -14 -123q-12 -68 -29 -110 q-47 -119 -162 -199q2 -2 4 -2q80 -55 125 -143q29 -53 47.5 -116.5t38.5 -190.5q12 -76 21 -115q14 -57 35 -100q49 -102 163 -164q14 -8 19.5 -25.5t-2.5 -33t-24.5 -19.5t-30.5 4q-139 74 -201 201q-25 51 -41 118q-8 41 -23 119q-18 123 -37 180q-16 55 -38 103 q-37 70 -99 113h-2q-2 2 -6 4l-4 2l-2 2h-2l-8 4t-9 4q-12 8 -20 14q-8 4 -12 10q-12 14 -11 35z" />
<glyph unicode="|" horiz-adv-x="374" d="M178 750q0 424 29 714q2 16 15.5 27.5t30.5 9.5t28.5 -15.5t9.5 -31.5q-29 -285 -29 -704q0 -113 2 -330q2 -221 2 -328q0 -18 -12 -30.5t-29.5 -12.5t-30 12.5t-12.5 30.5q0 106 -2 325.5t-2 332.5z" />
<glyph unicode="}" horiz-adv-x="722" d="M61 1432.5q-2 17.5 9.5 31t27.5 15.5q66 6 117 -33q43 -31 76 -92q45 -84 80 -256l28 -154q20 -113 39 -149q14 -31 82 -84q2 -2 11.5 -9.5t11.5 -9.5q12 -10 22 -18q25 -20 39 -39q23 -23 31 -47q10 -29 -12 -53q-6 -8 -21 -17l-8 -4q-70 -55 -105 -158 q-27 -74 -43 -213q-2 -16 -6 -55q-12 -102 -22 -154q-14 -82 -41 -139q-70 -147 -240 -166q-16 -2 -29.5 8.5t-15.5 28t8.5 30.5t28.5 15q121 14 172 119q20 47 35 121q8 47 20 147q4 37 6 54q18 150 48 233q43 125 133 195q-16 16 -74 65q-39 31 -59 49q-33 33 -48 64 q-23 47 -47 172q-20 115 -26 149q-35 168 -78 245t-105 71q-16 -2 -29.5 9t-15.5 28.5z" />
<glyph unicode="~" horiz-adv-x="1251" d="M39 371q-8 117 96 213q102 94 242 71q51 -8 117 -32q39 -16 112 -52q8 -4 10 -6q88 -41 136 -57q68 -23 118 -19q123 10 215 195q8 14 24.5 20.5t33 -2t21.5 -24.5t-3 -33q-113 -225 -284 -239q-68 -4 -152 22q-51 18 -143 61q-4 2 -11 7q-74 35 -108 49q-57 23 -101 28 q-98 16 -169 -51q-74 -70 -70 -145q2 -16 -9.5 -29.5t-28.5 -14.5t-30.5 10.5t-15.5 27.5z" />
<glyph unicode="&#xad;" d="M78 576.5q0 17.5 13.5 29.5t29.5 10q57 0 184 -4q96 -4 146 -4q66 -2 120 -2q16 0 28.5 -12t12.5 -29.5t-12 -30t-29 -12.5q-55 0 -120 2q-53 2 -150 4q-125 4 -182 4q-16 2 -28.5 14.5t-12.5 30z" />
<glyph unicode="&#x2000;" horiz-adv-x="861" />
<glyph unicode="&#x2001;" horiz-adv-x="1722" />
<glyph unicode="&#x2002;" horiz-adv-x="861" />
<glyph unicode="&#x2003;" horiz-adv-x="1722" />
<glyph unicode="&#x2004;" horiz-adv-x="574" />
<glyph unicode="&#x2005;" horiz-adv-x="430" />
<glyph unicode="&#x2006;" horiz-adv-x="287" />
<glyph unicode="&#x2007;" horiz-adv-x="287" />
<glyph unicode="&#x2008;" horiz-adv-x="215" />
<glyph unicode="&#x2009;" horiz-adv-x="344" />
<glyph unicode="&#x200a;" horiz-adv-x="95" />
<glyph unicode="&#x2010;" d="M78 576.5q0 17.5 13.5 29.5t29.5 10q57 0 184 -4q96 -4 146 -4q66 -2 120 -2q16 0 28.5 -12t12.5 -29.5t-12 -30t-29 -12.5q-55 0 -120 2q-53 2 -150 4q-125 4 -182 4q-16 2 -28.5 14.5t-12.5 30z" />
<glyph unicode="&#x2011;" d="M78 576.5q0 17.5 13.5 29.5t29.5 10q57 0 184 -4q96 -4 146 -4q66 -2 120 -2q16 0 28.5 -12t12.5 -29.5t-12 -30t-29 -12.5q-55 0 -120 2q-53 2 -150 4q-125 4 -182 4q-16 2 -28.5 14.5t-12.5 30z" />
<glyph unicode="&#x2012;" d="M78 576.5q0 17.5 13.5 29.5t29.5 10q57 0 184 -4q96 -4 146 -4q66 -2 120 -2q16 0 28.5 -12t12.5 -29.5t-12 -30t-29 -12.5q-55 0 -120 2q-53 2 -150 4q-125 4 -182 4q-16 2 -28.5 14.5t-12.5 30z" />
<glyph unicode="&#x2013;" horiz-adv-x="1188" d="M78 576.5q0 17.5 26 29.5t56 10q110 0 353 -4q184 -4 280 -4q127 -2 230 -2q31 0 55 -12t24 -29.5t-23 -30t-56 -12.5q-105 0 -230 2q-101 2 -287 4q-240 4 -349 4q-31 2 -55 14.5t-24 30z" />
<glyph unicode="&#x2014;" horiz-adv-x="2212" d="M78 576.5q0 17.5 52 29.5t113 10q219 0 706 -4q368 -4 560 -4q253 -2 460 -2q61 0 109 -12t48 -29.5t-46 -30t-111 -12.5q-211 0 -460 2q-204 2 -576 4q-479 4 -698 4q-61 2 -109 14.5t-48 30z" />
<glyph unicode="&#x2018;" horiz-adv-x="456" d="M111 983l55 72l-29 88q16 -6 35 -13q-2 31 -4 56q-4 96 18 160q29 86 107 133q14 8 30.5 4t25.5 -18.5t5 -32t-18 -25.5q-90 -55 -84 -217q0 -23 4 -53q20 16 43 30l-2 -92l76 -53l-88 -27l-29 -88l-53 76h-92z" />
<glyph unicode="&#x2019;" horiz-adv-x="495" d="M150 1380l90 27l28 86l51 -76h93l-58 -74l29 -88q-18 8 -37 15q4 -51 -8 -111q-27 -106 -94 -182q-12 -12 -29.5 -13t-31 10t-14.5 28.5t11 29.5q53 61 76 148q10 45 6 84l-41 -29l4 90z" />
<glyph unicode="&#x201c;" horiz-adv-x="735" d="M47 983l55 72l-28 88q16 -6 32 -10q-2 18 -2 36q-4 96 19 160q29 86 106 133q14 8 30.5 4t26 -18t5 -31.5t-18.5 -25.5q-90 -55 -84 -217q0 -18 2 -39l46 32l-3 -92l76 -53l-88 -27l-28 -88l-54 76h-92zM389 1012l55 71l-28 88q18 -6 37 -12q-6 51 8 109q25 109 90 186 q10 12 27.5 14t31 -9t14 -28.5t-9.5 -31.5q-53 -61 -71 -150q-12 -45 -6 -84l41 31l-3 -92l76 -53l-88 -27l-28 -88l-54 76h-92z" />
<glyph unicode="&#x201d;" horiz-adv-x="722" d="M70 1022.5q2 16.5 16 28.5q61 45 91 118.5t20 151.5q-18 0 -33 8q-10 0 -19 6q-61 35 -49 92q6 41 51 70q41 27 84 27q59 -2 82 -54q20 -51 -12 -98q-10 -12 -25 -24q18 -102 -18.5 -203t-120.5 -162q-14 -10 -31.5 -8t-27.5 16.5t-8 31zM419 1023.5q1 17.5 13 29.5 q25 20 54.5 65t48.5 86q20 51 18 84q-2 18 -10 31q-25 -2 -45 10q-27 16 -35 45q-8 16 -10 35q-4 59 53 86q61 29 104 -10q45 -39 21 -101q-4 -14 -13 -26q16 -27 19 -64q4 -53 -25 -120q-23 -51 -57.5 -103.5t-67.5 -81.5q-12 -10 -29.5 -9t-28.5 13.5t-10 30z" />
<glyph unicode="&#x202f;" horiz-adv-x="344" />
<glyph unicode="&#x205f;" horiz-adv-x="430" />
<glyph unicode="&#x25fc;" horiz-adv-x="1187" d="M0 0v1188h1188v-1188h-1188z" />
</font>
</defs>
</svg>
